<svg xmlns="http://www.w3.org/2000/svg" version="1.1" xmlns:xlink="http://www.w3.org/1999/xlink" width="746.6963252314815" height="200" viewBox="1.6800000667572021 3.4000000953674316 242.010009765625 57.5"><path d="M28.52 40.43L28.52 40.43Q28.52 41.82 26.76 41.82L26.76 41.82Q26.07 41.82 25.82 41.72L25.82 41.72Q19.30 35.04 13.09 35.04L13.09 35.04Q11.72 35.04 7.34 36.13L7.34 36.13Q5.98 36.46 4.92 38.50L4.92 38.50Q4.67 38.96 3.55 41.78L3.55 41.78Q3.28 42.01 2.30 42.48L2.30 42.48Q1.68 41.88 1.68 40.82L1.68 40.82Q1.68 37.05 3.52 33.01L3.52 33.01Q3.98 32.27 4.88 30.72L4.88 30.72L8.42 22.97Q12.73 13.63 16.60 7.07L16.60 7.07L16.62 7.68Q17.54 7.25 18.01 5.35L18.01 5.35Q18.44 3.65 19.30 3.65L19.30 3.65Q19.38 3.59 19.51 3.59L19.51 3.59Q20.08 3.59 20.41 4.51L20.41 4.51Q20.47 4.75 20.96 6.82L20.96 6.82Q22.73 14.34 24.65 24.28L24.65 24.28L25.82 30.37Q26.25 31.21 26.93 32.87L26.93 32.87Q27.25 33.91 27.85 36.66L27.85 36.66Q28.52 39.67 28.52 40.43ZM24.73 37.03L24.73 37.03L24.73 35.88Q24.73 35.10 23.61 29.20L23.61 29.20L21.70 19.06Q20.82 14.30 18.91 9.20L18.91 9.20Q16.41 11.84 12.17 21.80L12.17 21.80L10.86 24.82Q10.39 25.49 10.04 26.06Q9.69 26.64 8.59 29.28L8.59 29.28Q7.44 32.03 7.44 32.40L7.44 32.40Q7.44 33.01 7.75 33.01L7.75 33.01Q7.75 33.01 7.75 33.01L7.75 33.01L13.24 32.77Q13.59 32.75 13.95 32.75L13.95 32.75Q16.80 32.75 19.34 33.79L19.34 33.79Q21.21 34.57 24.73 37.03ZM54.51 28.40L54.51 28.40Q51.97 29.51 46.43 31.29L46.43 31.29Q41.21 32.97 40.10 33.36L40.10 33.36Q35.41 35.10 34.55 36.21L34.55 36.21Q34.57 36.76 35 36.99L35 36.99Q36.00 37.56 39.20 37.56L39.20 37.56Q40.31 37.56 44.34 36.70L44.34 36.70Q49.73 35.57 54.22 34.34L54.22 34.34Q53.98 35.57 53.20 35.98L53.20 35.98Q52.38 36.43 47.17 37.97L47.17 37.97Q41.78 39.57 40.96 39.57L40.96 39.57Q40.68 39.57 39.13 39.70Q37.58 39.82 37.30 39.82L37.30 39.82Q35.70 39.82 33.71 39.06L33.71 39.06Q31.31 38.14 31.31 36.80L31.31 36.80Q31.31 35.08 32.38 34.39L32.38 34.39Q32.56 34.30 34.80 33.26L34.80 33.26Q39.51 31.13 42.70 30.47L42.70 30.47Q43.77 30.23 45.47 29.49L45.47 29.49Q47.40 28.61 48.20 28.38L48.20 28.38L50.43 27.95Q51.54 27.71 52.38 26.86L52.38 26.86Q51.84 19.92 51.84 9.77L51.84 9.77Q51.84 3.98 52.73 3.67L52.73 3.67Q53.48 4.00 53.69 4.28L53.69 4.28Q54.06 4.77 54.14 6.07L54.14 6.07Q54.14 6.02 54.14 6.02L54.14 6.02Q54.12 6.02 54.12 10.51L54.12 10.51L54.14 23.65Q54.14 25.94 54.51 28.40ZM63.05 21.05L63.05 21.05L63.07 21.13Q63.07 21.89 61.46 22.99L61.46 22.99Q61.00 22.85 59.55 21.39L59.55 21.39Q60.14 19.98 60.82 19.98L60.82 19.98Q61.46 19.98 63.05 21.05ZM61.21 35.98L61.21 35.98Q60.98 39.14 60.98 39.65L60.98 39.65Q60.04 40.18 59.30 40.18L59.30 40.18Q58.98 39.28 58.98 37.95L58.98 37.95Q58.98 30.57 60.82 30.12L60.82 30.12Q61.46 30.41 61.52 31.11L61.52 31.11Q61.50 30.86 61.46 30.84L61.46 30.84Q61.48 31.05 61.48 31.37L61.48 31.37Q61.48 32.75 61.21 35.98ZM85.84 25.51L85.84 26.80Q81.37 26.80 78.14 28.28L78.14 28.28Q77.36 28.63 77.19 29.28L77.19 29.28Q77.15 30.20 76.88 32.62L76.88 32.62Q76.78 33.52 76.78 34.47L76.78 34.47Q76.78 34.67 76.87 35.77Q76.95 36.88 76.95 37.05L76.95 37.05Q76.95 38.59 76.19 39.61L76.19 39.61Q76.04 39.57 75.33 39.28L75.33 39.28Q74.57 37.30 74.57 34.69L74.57 34.69Q74.57 34.04 74.79 32.11L74.79 32.11Q74.98 30.21 74.98 29.55L74.98 29.55Q74.98 28.96 74.57 28.67L74.57 28.67Q74.22 28.81 72.07 29.02L72.07 29.02Q71.70 29.10 69.84 29.38L69.84 29.38Q69.51 29.41 68.63 29.51L68.63 29.51Q68.44 29.53 67.68 30.14L67.68 30.14Q67.48 30.31 67.48 30.90L67.48 30.90Q67.48 30.96 67.48 31.04L67.48 31.04L66.62 31.04Q66.33 31.04 65.40 30.22Q64.47 29.41 64.47 29.18L64.47 29.18Q64.47 27.97 68.77 27.38L68.77 27.38Q74.02 26.66 75.04 26.11L75.04 26.11Q75.63 25.76 76.33 18.40L76.33 18.40Q76.68 14.77 77.77 9.08L77.77 9.08Q77.87 8.59 78.09 7.58L78.09 7.58Q78.16 7.36 79.45 6.74L79.45 6.74L79.79 9.14Q79.69 9.63 79.41 11.19L79.41 11.19L78.59 16.21Q78.46 16.84 78.28 18.61L78.28 18.61L77.95 25.59L85.84 25.51ZM102.68 32.07L102.68 32.07Q102.68 32.29 102.42 33.18L102.42 33.18Q102.15 34.12 102.15 34.22L102.15 34.22Q102.15 34.28 102.15 34.36L102.15 34.36Q102.15 34.86 102.07 35.76L102.07 35.76Q101.09 38.07 99.51 42.71L99.51 42.71Q98.98 43.28 97.44 46.58L97.44 46.58Q97.48 46.56 97.48 46.54L97.48 46.54L97.48 46.56Q97.48 46.62 96.37 49.63L96.37 49.63Q95.76 51.25 94.71 53.81L94.71 53.81Q94.57 54.47 94.28 56.05L94.28 56.05Q94.24 56.33 93.77 57.50L93.77 57.50Q93.38 58.46 93.38 58.95L93.38 58.95Q93.38 59.12 93.46 59.26L93.46 59.26Q93.09 59.88 92.07 60.90L92.07 60.90L91.21 60.90Q90.63 59.80 90.63 59.30L90.63 59.30Q90.63 57.36 93.20 50.74L93.20 50.74Q94.22 48.13 95.70 44.71L95.70 44.71Q96.19 43.83 97.29 41.46L97.29 41.46Q97.66 40.31 98.07 39.43L98.07 39.43Q98.44 38.87 99.34 36.27L99.34 36.27Q99.28 36.21 99.28 36.07L99.28 36.07Q99.28 35.88 99.38 35.57L99.38 35.57Q99.41 35.41 99.41 35.31L99.41 35.31Q99.41 35.12 99.28 35.12L99.28 35.12Q99.10 35.12 96.93 36.00Q94.77 36.88 94.63 36.88L94.63 36.88Q94.22 36.88 92.65 37.13Q91.07 37.38 90.86 37.38L90.86 37.38Q89.28 37.38 87.99 34.82L87.99 34.82Q86.86 32.58 86.86 30.72L86.86 30.72Q86.86 30.18 87.42 29.10L87.42 29.10L88.55 29.10Q90 35.16 92.62 35.16L92.62 35.16Q94.82 35.16 97.93 32.87L97.93 32.87L101.41 30.31Q102.68 30.76 102.68 32.07ZM122.89 39.06L122.89 39.94Q122.48 40.51 121.99 40.51L121.99 40.51Q121.68 40.51 119.88 38.63L119.88 38.63Q118.09 36.74 117.48 36.74L117.48 36.74Q117.48 36.74 117.48 36.74L117.48 36.74Q117.48 36.78 113.22 38.38L113.22 38.38Q108.87 40 107.68 40L107.68 40Q106.70 40 105.51 39.04Q104.32 38.09 104.32 37.25L104.32 37.25Q104.32 35.08 109.06 32.19L109.06 32.19Q113.52 29.45 115.86 29.45L115.86 29.45Q116.84 29.45 117.62 30.57L117.62 30.57L117.62 31.41Q117.23 31.97 116.72 31.97L116.72 31.97Q116.62 31.97 116.04 31.72Q115.47 31.46 115.35 31.46L115.35 31.46Q114.57 31.46 111.78 33.07L111.78 33.07Q109.12 34.57 108.22 35.31L108.22 35.31Q107.32 36.09 107.07 37.09L107.07 37.09Q107.75 37.73 108.69 37.73L108.69 37.73Q109.18 37.73 113.40 36.11L113.40 36.11Q117.60 34.47 118.48 34.47L118.48 34.47Q119.77 34.47 120.33 35.12L120.33 35.12Q120.47 35.27 121.33 36.88L121.33 36.88Q121.97 38.09 122.89 39.06L122.89 39.06ZM172.48 29.38L172.48 29.38Q172.48 30.39 170.55 31.76L170.55 31.76Q169.00 32.83 167.64 33.32L167.64 33.32Q166.60 33.67 155.08 36.27L155.08 36.27Q146.41 38.22 143.79 40.39L143.79 40.39Q143.38 40.35 142.85 39.88L142.85 39.88L142.85 38.67Q144.98 37.03 147.21 36.23L147.21 36.23Q149.67 35.37 154.26 34.28L154.26 34.28L161.37 32.58Q162.99 32.21 164.79 31.64L164.79 31.64Q166.84 31.00 168.03 30.31L168.03 30.31Q168.28 30.18 169.18 29.22L169.18 29.22Q168.55 28.11 167.15 27.42L167.15 27.42Q166.21 26.95 164.51 26.45L164.51 26.45Q163.24 26.07 159.63 25L159.63 25Q142.85 19.86 142.85 15.31L142.85 15.31Q142.85 13.98 143.71 13.40L143.71 13.40Q143.81 13.32 145.90 12.70L145.90 12.70Q157.52 9.30 163.32 9.30L163.32 9.30L163.98 9.30Q167.58 9.30 168.96 10.90L168.96 10.90Q168.71 11.19 168.67 11.52L168.67 11.52Q165.33 11.05 164.82 11.05L164.82 11.05Q162.66 11.05 157.44 12.05L157.44 12.05Q152.68 12.99 148.26 14.14L148.26 14.14Q146.43 14.65 145.35 15.47L145.35 15.47Q146.56 17.50 149.71 19.00L149.71 19.00Q150.18 19.22 155.06 21.31L155.06 21.31L159.08 22.40Q172.48 26.11 172.48 29.38ZM181.23 21.05L181.23 21.05L181.25 21.13Q181.25 21.89 179.65 22.99L179.65 22.99Q179.18 22.85 177.73 21.39L177.73 21.39Q178.32 19.98 179.00 19.98L179.00 19.98Q179.65 19.98 181.23 21.05ZM179.39 35.98L179.39 35.98Q179.16 39.14 179.16 39.65L179.16 39.65Q178.22 40.18 177.48 40.18L177.48 40.18Q177.17 39.28 177.17 37.95L177.17 37.95Q177.17 30.57 179.00 30.12L179.00 30.12Q179.65 30.41 179.71 31.11L179.71 31.11Q179.69 30.86 179.65 30.84L179.65 30.84Q179.67 31.05 179.67 31.37L179.67 31.37Q179.67 32.75 179.39 35.98ZM200.94 29.45L200.94 29.45Q200.94 29.86 200.53 34.12L200.53 34.12Q200.18 37.66 199.67 41.82L199.67 41.82Q199.63 42.13 199.04 42.13L199.04 42.13Q198.28 42.13 197.79 40.21L197.79 40.21Q197.42 38.75 197.42 37.62L197.42 37.62Q197.42 37.19 197.92 34.53Q198.42 31.88 198.42 31.46L198.42 31.46Q198.42 30.31 197.79 30.31L197.79 30.31Q196.99 30.31 194.38 31.70L194.38 31.70Q192.11 32.91 191.07 33.67L191.07 33.67Q189.10 35.12 186.60 38.03L186.60 38.03Q186.19 38.50 185 39.82L185 39.82Q184.53 40.31 183.14 40.33L183.14 40.33L183.14 39.02Q183.14 38.11 186.74 34.98L186.74 34.98Q189.61 32.48 192.75 30.45L192.75 30.45Q197.17 27.58 199.32 27.58L199.32 27.58Q199.88 27.58 200.41 28.20Q200.94 28.83 200.94 29.45ZM220.63 44.22L220.63 44.22Q220.63 48.32 218.65 52.34L218.65 52.34Q216.39 56.88 212.46 59.18L212.46 59.18Q210.27 60.49 203.69 60.49L203.69 60.49Q202.64 60.49 200.57 60.06L200.57 60.06Q198.48 59.61 197.38 59.18L197.38 59.18Q195.84 58.57 194.86 57.64L194.86 57.64Q194.20 57.01 193.59 55.61L193.59 55.61Q193.01 54.22 193.01 53.30L193.01 53.30Q193.01 50.66 198.73 47.89L198.73 47.89Q202.71 45.98 207.89 44.59L207.89 44.59Q211.64 43.57 217.70 42.87L217.70 42.87L218.13 42.66Q218.14 42.44 218.14 42.23L218.14 42.23Q218.14 42.05 217.77 39.28L217.77 39.28Q217.66 38.44 216.86 36.43L216.86 36.43Q215.94 34.12 215.49 34.12L215.49 34.12Q215.55 34.12 215.55 34.14L215.55 34.14Q215.55 34.26 213.32 35L213.32 35Q210.68 35.88 209.57 35.88L209.57 35.88Q207.99 35.88 206.84 35.33L206.84 35.33Q205.31 34.61 205.31 33.26L205.31 33.26Q205.31 32.81 205.45 31.99L205.45 31.99L205.64 30.96L206.43 30.02Q207.34 29.51 209.20 28.87L209.20 28.87Q211.27 28.13 211.99 28.13L211.99 28.13L217.58 28.13L217.87 29.32L217.01 30.06Q216.46 30.02 215.94 30.02L215.94 30.02Q209.10 30.02 207.34 32.71L207.34 32.71Q208.32 33.87 209.94 33.87L209.94 33.87Q210.59 33.87 213.57 32.36L213.57 32.36Q216.27 31.02 216.27 30.88L216.27 30.88Q216.27 30.86 216.25 30.86L216.25 30.86Q217.29 30.86 218.16 33.22L218.16 33.22Q220.63 39.67 220.63 44.22ZM218.38 44.69L218.38 44.69Q218.38 43.87 218.05 43.44L218.05 43.44L217.23 43.44Q216.80 43.65 215.61 44.67L215.61 44.67Q214.24 44.84 212.46 45.23L212.46 45.23Q204.02 47.11 198.20 50.23L198.20 50.23Q195.45 51.74 195.45 54.04L195.45 54.04Q195.45 56.82 201.41 58.26L201.41 58.26Q203.30 58.73 205.21 58.73L205.21 58.73Q208.55 58.73 210.55 57.79L210.55 57.79Q211.25 57.19 211.80 56.86L211.80 56.86Q212.17 56.62 213.16 55.90L213.16 55.90Q215.35 54.20 216.95 50.59L216.95 50.59Q218.38 47.36 218.38 44.69ZM243.69 42.48L243.69 43.36L243.09 43.91Q240.61 42.91 240.61 40.59L240.61 40.59Q240.61 40.41 240.65 39.52Q240.70 38.63 240.70 38.50L240.70 38.50Q240.70 35.88 237.85 35.88L237.85 35.88L237.30 35.88Q235.16 35.88 229.63 37.23L229.63 37.23Q226.86 37.89 226.76 37.89L226.76 37.89Q225.43 37.89 223.63 36.60L223.63 36.60L225.18 19.84Q226.23 8.38 228.44 3.40L228.44 3.40Q228.91 3.52 229.88 3.69L229.88 3.69Q229.36 5.47 228.40 11.66L228.40 11.66Q227.48 17.42 227.29 19.71L227.29 19.71Q226.88 24.26 226.46 29.38L226.46 29.38Q226.13 33.65 226.13 34.28L226.13 34.28L226.13 34.55Q226.13 35.12 226.29 35.25L226.29 35.25Q226.45 35.37 227.15 35.37L227.15 35.37Q227.34 35.37 228.06 35.18Q228.77 34.98 228.77 34.98L228.77 34.98Q228.77 34.98 228.77 34.98L228.77 34.98Q229.28 34.92 234.82 34.12L234.82 34.12Q238.36 33.61 238.55 33.61L238.55 33.61Q238.63 33.61 239.10 33.59L239.10 33.59Q239.57 33.57 239.65 33.57L239.65 33.57Q240.23 33.57 240.61 33.73L240.61 33.73Q242.38 34.43 242.83 36.78L242.83 36.78Q243.01 37.66 243.01 40.78L243.01 40.78Q243.01 41.86 243.69 42.48L243.69 42.48Z" fill="black"></path></svg>